<svg width="20" height="20" viewBox="0 0 20 20" fill="none" xmlns="http://www.w3.org/2000/svg">
<path fill-rule="evenodd" clip-rule="evenodd" d="M19.7979 18.6027L13.5518 12.3565C14.7655 10.8373 15.3514 8.91111 15.1893 6.97342C15.0271 5.03572 14.1292 3.23367 12.6799 1.93735C11.2305 0.641025 9.33989 -0.0511605 7.39618 0.0029492C5.45247 0.0570589 3.60325 0.853356 2.2283 2.2283C0.853356 3.60325 0.0570589 5.45247 0.0029492 7.39618C-0.0511605 9.33989 0.641025 11.2305 1.93735 12.6799C3.23367 14.1292 5.03572 15.0271 6.97342 15.1893C8.91111 15.3514 10.8373 14.7655 12.3565 13.5518L18.6027 19.7979C18.6647 19.8619 18.739 19.9127 18.8211 19.9474C18.9031 19.9821 18.9913 20 19.0804 20C19.1695 20 19.2577 19.9821 19.3398 19.9474C19.4219 19.9127 19.4961 19.8619 19.5582 19.7979L19.7979 19.5582C19.8619 19.4961 19.9127 19.4219 19.9474 19.3398C19.9821 19.2577 20 19.1695 20 19.0804C20 18.9913 19.9821 18.9031 19.9474 18.8211C19.9127 18.739 19.8619 18.6647 19.7979 18.6027ZM7.00937 13.4985C5.89752 13.3838 4.84099 12.9562 3.96224 12.2654C3.0835 11.5746 2.41854 10.6489 2.04445 9.59562C1.67037 8.54233 1.60248 7.40457 1.84867 6.31427C2.09485 5.22396 2.64502 4.22576 3.43539 3.43539C4.22576 2.64502 5.22396 2.09485 6.31427 1.84867C7.40457 1.60248 8.54233 1.67037 9.59562 2.04445C10.6489 2.41854 11.5746 3.0835 12.2654 3.96224C12.9562 4.84099 13.3838 5.89752 13.4985 7.00937C13.5851 7.88296 13.4767 8.76488 13.1812 9.59152C12.8857 10.4182 12.4104 11.1689 11.7897 11.7897C11.1689 12.4104 10.4182 12.8857 9.59152 13.1812C8.76488 13.4767 7.88296 13.5851 7.00937 13.4985Z" fill="#01416D"/>
</svg>
