<svg width="334" height="33" viewBox="0 0 334 33" fill="none" xmlns="http://www.w3.org/2000/svg">
<path d="M226.442 0.306097H227.721C232.905 0.306097 238.089 0.323972 243.273 0.283752C244.048 0.283752 244.409 0.534006 244.712 1.20209C247.561 7.39439 250.433 13.5763 253.325 19.7477C253.525 20.1789 253.729 20.6079 254.061 21.3118C254.368 20.7308 254.577 20.3711 254.743 19.998C257.623 13.8198 260.516 7.64837 263.354 1.45235C263.731 0.627852 264.156 0.281518 265.109 0.290456C270.368 0.332909 275.629 0.308331 280.888 0.308331C281.115 0.308331 281.342 0.344082 281.636 0.36866V32.2939H272.106C272.106 31.8828 272.106 31.4895 272.106 31.094C272.174 23.8456 272.254 16.5972 272.295 9.34875C272.295 8.95773 272.068 8.31199 271.809 8.23155C271.172 8.02598 270.536 8.09972 270.136 8.90187C268.106 12.9685 266.022 17.0083 263.952 21.0571C262.172 24.5405 260.363 28.0128 258.62 31.5163C258.284 32.1867 257.893 32.4101 257.145 32.3922C255.1 32.3408 253.054 32.3386 251.009 32.3922C250.236 32.4168 249.873 32.1442 249.545 31.4985C245.805 24.1249 242.005 16.7737 238.296 9.3778C237.725 8.24272 237.037 7.9299 235.809 8.29635V32.2917H226.442V0.306097Z" fill="#01416D"/>
<path d="M33.8243 9.00467C32.9622 12.1135 32.1023 15.2193 31.2448 18.3222C30.0403 22.6927 28.8199 27.0565 27.6585 31.4381C27.4699 32.1442 27.204 32.3922 26.4449 32.3878C21.9784 32.355 17.5134 32.355 13.0498 32.3878C12.3953 32.3878 12.0408 32.2358 11.7953 31.5878C7.88635 21.2962 3.9607 11.0097 0.0183805 0.728412C-0.000470693 0.612459 -0.00656627 0.494847 0.000199195 0.37761C0.345644 0.353032 0.697907 0.310578 1.0479 0.310578C3.62055 0.310578 6.19548 0.330688 8.77496 0.274827C9.5613 0.256952 9.89084 0.511675 10.1386 1.22892C12.7885 8.61439 15.4604 15.9924 18.1542 23.363C18.3815 23.9976 18.5361 24.583 19.4928 24.5517C20.3246 24.5249 20.6678 24.2657 20.9042 23.4903C23.1337 16.128 25.4222 8.78123 27.6472 1.41661C27.9017 0.569769 28.2244 0.230139 29.1789 0.254718C32.2425 0.332922 35.3151 0.361969 38.3719 0.274827C39.5196 0.241311 39.9923 0.558597 40.3218 1.65569C42.499 8.91753 44.7717 16.1503 46.9807 23.4054C47.2444 24.2813 47.6466 24.5718 48.5716 24.5472C49.3943 24.5249 49.5511 24.0579 49.7625 23.4769C52.3942 16.2442 55.0669 9.02254 57.6441 1.77188C58.0463 0.639036 58.5395 0.223436 59.7804 0.274827C62.2803 0.375376 64.7802 0.285999 67.2802 0.274827C67.6461 0.274827 68.012 0.306109 68.5438 0.330688C67.4984 2.94718 66.5211 5.42291 65.5461 7.89863C62.4894 15.652 59.4099 23.401 56.3987 31.1678C56.0328 32.1129 55.5691 32.4235 54.5169 32.4034C50.2806 32.3274 46.0421 32.3498 41.8036 32.3878C40.9332 32.3878 40.5718 32.1286 40.3423 31.2817C38.4196 24.2188 36.4401 17.1714 34.4765 10.1219C34.372 9.74202 34.2493 9.37111 34.122 9.00467H33.8243Z" fill="#01416D"/>
<path d="M199.781 33C194.988 32.7766 190.172 32.7632 185.406 32.2761C180.516 31.78 178.588 29.8495 177.927 25.0902C177.101 19.2665 177.101 13.3582 177.927 7.53443C178.631 2.58968 181.131 0.424538 186.456 0.254723C193.822 0.0201097 201.197 0 208.567 0C210.984 0.0129737 213.395 0.237299 215.771 0.670323C219.055 1.26021 220.999 3.35161 221.546 6.60045C222.337 11.2056 222.335 15.8487 222.117 20.4895C222.039 22.3066 221.851 24.1175 221.553 25.9125C220.91 29.6663 218.717 31.7733 214.846 32.2358C212.226 32.5464 209.576 32.6425 206.935 32.7319C204.553 32.8123 202.163 32.7497 199.788 32.7497L199.781 33ZM199.835 24.8265V24.6746C201.385 24.6746 202.938 24.6925 204.488 24.6746C205.51 24.6589 206.533 24.583 207.549 24.5271C210.812 24.3439 212.16 23.153 212.321 19.9399C212.456 17.4527 212.438 14.9598 212.267 12.4747C212.04 9.38005 210.703 8.22933 207.51 8.14889C203.874 8.06175 200.249 7.99248 196.617 7.99472C194.727 7.98521 192.837 8.08444 190.958 8.29189C188.756 8.54885 187.638 9.60796 187.495 11.7508C187.295 14.6354 187.22 17.5401 187.313 20.427C187.388 22.8156 188.606 24.0892 191.008 24.3305C193.936 24.6254 196.892 24.6724 199.835 24.8265Z" fill="#01416D"/>
<path d="M85.6181 0.306097H86.9022C91.8225 0.306097 96.7428 0.328441 101.663 0.283752C102.52 0.283752 103.027 0.507193 103.518 1.21327C108.781 8.6613 114.067 16.0967 119.374 23.5194C119.46 23.6423 119.517 23.8166 119.635 23.8769C120.006 24.0668 120.401 24.2143 120.785 24.3774C120.931 24.0467 121.206 23.7071 121.204 23.3831C121.179 19.3611 121.106 15.3526 121.063 11.3374C121.029 7.98576 121.015 4.64532 120.997 1.29817C120.997 1.00994 121.026 0.719462 121.044 0.373129H130.906V1.43224C130.906 11.324 130.892 21.2157 130.926 31.1052C130.926 32.0615 130.699 32.4012 129.676 32.3922C124.642 32.3475 119.608 32.3922 114.574 32.3364C114.092 32.3364 113.451 31.9386 113.158 31.5342C107.819 24.1368 102.506 16.7208 97.2178 9.28619C97.1315 9.16553 97.0746 8.99348 96.9542 8.92868C96.5337 8.69407 96.0906 8.49744 95.6565 8.28517C95.5224 8.66279 95.2724 9.04264 95.2747 9.42025C95.3201 16.3469 95.3997 23.2512 95.4656 30.1667C95.486 32.3721 95.4656 32.3721 93.2725 32.3721H85.6181V0.306097Z" fill="#01416D"/>
<path d="M134.553 21.8816C137.621 21.8816 140.419 21.8592 143.217 21.9173C143.498 21.9173 143.953 22.3642 144.017 22.6793C144.471 24.8869 144.944 25.4745 147.198 25.5192C152.078 25.6197 156.971 25.6488 161.841 25.5527C164.468 25.5013 165.52 24.0936 164.839 21.8034C164.727 21.5067 164.556 21.2351 164.335 21.0048C164.115 20.7745 163.849 20.5902 163.555 20.4627C162.73 20.1566 161.782 20.1164 160.882 20.0762C154.912 19.8103 148.939 19.5846 142.967 19.3254C142.136 19.2892 141.31 19.1876 140.496 19.0215C136.983 18.2976 135.378 16.5637 134.976 12.5127C134.778 10.4018 134.861 8.27453 135.224 6.18485C135.878 2.38635 138.205 0.402199 142.457 0.263665C149.487 0.0402245 156.523 0.0402245 163.557 0.0580998C165.148 0.0580998 166.77 0.487106 168.345 0.855784C171.057 1.49259 172.679 3.19968 173.009 5.95247C173.173 7.29312 173.198 8.67175 173.286 10.0817C172.979 10.146 172.669 10.1923 172.357 10.2202C169.823 10.2202 167.286 10.209 164.75 10.2381C164.068 10.2381 163.702 10.0884 163.702 9.3242C163.702 8.12879 162.955 7.51209 161.83 7.29535C161.313 7.17765 160.785 7.11251 160.255 7.10096C155.709 7.14118 151.178 7.17023 146.641 7.27971C145.067 7.3177 144.369 8.07516 144.305 9.45379C144.232 11.1274 144.914 11.9005 146.698 12.0167C149.303 12.1865 151.91 12.3161 154.519 12.4367C158.296 12.611 162.077 12.7518 165.855 12.9328C166.685 12.971 167.512 13.071 168.327 13.2322C172.288 14.0299 174.109 16.0878 174.313 20.0784C174.391 21.6425 174.388 23.2066 174.313 24.7573C174.068 29.6998 171.775 32.1509 166.73 32.4436C161.787 32.7319 156.825 32.8145 151.873 32.7967C148.439 32.7855 145.005 32.4593 141.571 32.2515C141.045 32.1957 140.525 32.0956 140.017 31.9521C136.971 31.2438 135.051 29.4942 134.79 26.3191C134.649 24.8891 134.626 23.4613 134.553 21.8816Z" fill="#01416D"/>
<path d="M286.599 32.3208V0.395508H322.507V7.69532H321.123C313.214 7.69532 305.305 7.71543 297.396 7.67075C296.333 7.67075 295.974 7.98356 296.074 8.99575C296.187 10.1286 295.799 11.6346 296.403 12.296C296.928 12.8702 298.533 12.5194 299.66 12.5194C306.358 12.5298 313.057 12.5298 319.755 12.5194H321.173V19.2919C320.719 19.3165 320.241 19.3656 319.766 19.3656C312.351 19.3656 304.933 19.3925 297.515 19.3433C296.349 19.3433 295.962 19.6829 296.065 20.8046C296.135 21.8067 296.135 22.8123 296.065 23.8144C296.024 24.6098 296.358 24.8221 297.128 24.8176C301.292 24.7886 305.453 24.8042 309.617 24.8042C313.628 24.8042 317.639 24.8288 321.662 24.7863C322.571 24.7863 322.853 25.0433 322.819 25.9281C322.753 27.5994 322.728 29.2797 322.819 30.9466C322.882 32.0638 322.546 32.4079 321.378 32.399C313.998 32.3476 306.619 32.3721 299.24 32.3699H287.772C287.394 32.3699 287.038 32.3409 286.599 32.3208Z" fill="#01416D"/>
<path d="M70.4322 32.3006V1.76965C70.4322 0.315053 70.4322 0.310584 71.9322 0.30835C74.5048 0.30835 77.0752 0.30835 79.6456 0.30835C80.2456 0.30835 80.7319 0.30835 80.7274 1.16413C80.7001 11.4528 80.6903 21.7416 80.6978 32.0303C80.6759 32.1247 80.6407 32.2157 80.5933 32.3006H70.4322Z" fill="#01416D"/>
<path d="M334 4.27669C334 6.65187 332.182 8.40364 329.746 8.39247C328.637 8.39426 327.574 7.9638 326.788 7.19554C326.003 6.42729 325.559 5.38399 325.555 4.29456C325.543 3.74571 325.645 3.20025 325.853 2.69102C326.062 2.18179 326.373 1.71932 326.768 1.33145C327.164 0.943585 327.634 0.638344 328.153 0.434106C328.671 0.229867 329.226 0.130855 329.784 0.14303C332.264 0.138561 334.005 1.85906 334 4.27669ZM329.639 7.85175C331.732 7.90761 333.386 6.42172 333.473 4.41075C333.488 3.92653 333.405 3.44413 333.229 2.99162C333.053 2.53911 332.788 2.12554 332.448 1.77496C332.108 1.42438 331.7 1.14381 331.249 0.94957C330.797 0.755329 330.311 0.6513 329.818 0.643538C328.845 0.650257 327.911 1.02546 327.212 1.69122C326.512 2.35697 326.1 3.2621 326.062 4.21859C326.03 6.11337 327.689 7.79365 329.639 7.84504V7.85175Z" fill="#01416D"/>
<path d="M330.9 4.54704L331.7 6.26754C330.011 6.85966 330.414 4.90902 329.502 4.6029C328.593 4.82634 329.98 6.66303 328.175 6.30105V1.95959C328.773 1.95959 329.35 1.85905 329.871 1.98417C330.514 2.14058 331.386 2.33721 331.643 2.79526C331.87 3.19299 331.368 3.9795 331.189 4.5962L330.9 4.54704ZM329.23 4.17166C329.807 3.94822 330.221 3.83426 330.546 3.60859C330.664 3.52815 330.659 3.00306 330.546 2.93827C330.122 2.72928 329.68 2.55948 329.225 2.43106L329.23 4.17166Z" fill="#01416D"/>
</svg>
