<svg width="24" height="24" viewBox="0 0 24 24" fill="none" xmlns="http://www.w3.org/2000/svg">
<path d="M19.02 11.028L7.43495 11.01L12.806 5.655C12.9884 5.46666 13.0896 5.21419 13.0877 4.95198C13.0858 4.68977 12.9809 4.4388 12.7958 4.25312C12.6106 4.06745 12.36 3.96192 12.0978 3.95928C11.8356 3.95664 11.5828 4.05709 11.394 4.239L4.31195 11.3C4.12448 11.4875 4.01917 11.7418 4.01917 12.007C4.01917 12.2722 4.12448 12.5265 4.31195 12.714L11.37 19.8C11.4621 19.8956 11.5723 19.972 11.6942 20.0245C11.8162 20.0771 11.9473 20.1049 12.0801 20.1062C12.2129 20.1075 12.3446 20.0824 12.4676 20.0323C12.5905 19.9822 12.7023 19.9081 12.7963 19.8144C12.8903 19.7206 12.9647 19.6091 13.0152 19.4862C13.0656 19.3634 13.0911 19.2318 13.0902 19.099C13.0892 18.9662 13.0618 18.835 13.0096 18.7129C12.9573 18.5908 12.8813 18.4804 12.786 18.388L7.42895 13.01L19.016 13.028C19.2812 13.028 19.5355 12.9226 19.7231 12.7351C19.9106 12.5476 20.016 12.2932 20.016 12.028C20.016 11.7628 19.9106 11.5084 19.7231 11.3209C19.5355 11.1334 19.2812 11.028 19.016 11.028H19.02Z" fill="#6B6C72"/>
</svg>
