<svg width="29" height="29" viewBox="0 0 29 29" fill="none" xmlns="http://www.w3.org/2000/svg">
<path d="M24.1969 9.65941L4.86361 9.63041C4.54314 9.63041 4.23579 9.50311 4.00919 9.2765C3.78258 9.04989 3.65527 8.74255 3.65527 8.42208C3.65527 8.10161 3.78258 7.79426 4.00919 7.56766C4.23579 7.34105 4.54314 7.21375 4.86361 7.21375L24.1969 7.24275C24.5174 7.24275 24.8248 7.37005 25.0514 7.59666C25.278 7.82326 25.4053 8.13061 25.4053 8.45108C25.4053 8.77155 25.278 9.07889 25.0514 9.3055C24.8248 9.53211 24.5174 9.65941 24.1969 9.65941Z" fill="#01416D"/>
<path d="M24.1886 15.701L4.85531 15.672C4.53484 15.672 4.22749 15.5447 4.00089 15.3181C3.77428 15.0915 3.64697 14.7842 3.64697 14.4637C3.64697 14.1432 3.77428 13.8359 4.00089 13.6093C4.22749 13.3827 4.53484 13.2554 4.85531 13.2554L24.1886 13.2844C24.5091 13.2844 24.8165 13.4117 25.0431 13.6383C25.2697 13.8649 25.397 14.1722 25.397 14.4927C25.397 14.8132 25.2697 15.1205 25.0431 15.3471C24.8165 15.5737 24.5091 15.701 24.1886 15.701Z" fill="#01416D"/>
<path d="M24.1798 21.7428L4.84652 21.7138C4.52605 21.7138 4.2187 21.5865 3.9921 21.3599C3.76549 21.1333 3.63818 20.8259 3.63818 20.5055C3.63818 20.185 3.76549 19.8776 3.9921 19.651C4.2187 19.4244 4.52605 19.2971 4.84652 19.2971L24.1798 19.3261C24.5003 19.3261 24.8077 19.4534 25.0343 19.68C25.2609 19.9066 25.3882 20.214 25.3882 20.5345C25.3882 20.8549 25.2609 21.1623 25.0343 21.3889C24.8077 21.6155 24.5003 21.7428 24.1798 21.7428Z" fill="#01416D"/>
</svg>
