<svg width="24" height="24" viewBox="0 0 24 24" fill="none" xmlns="http://www.w3.org/2000/svg">
<path d="M12 15C11.8022 15 11.6089 15.0586 11.4444 15.1685C11.28 15.2784 11.1518 15.4346 11.0761 15.6173C11.0004 15.8 10.9806 16.0011 11.0192 16.1951C11.0578 16.3891 11.153 16.5673 11.2929 16.7071C11.4327 16.847 11.6109 16.9422 11.8049 16.9808C11.9989 17.0194 12.2 16.9996 12.3827 16.9239C12.5654 16.8482 12.7216 16.72 12.8315 16.5556C12.9414 16.3911 13 16.1978 13 16C13 15.7348 12.8946 15.4804 12.7071 15.2929C12.5196 15.1054 12.2652 15 12 15Z" fill="#6B6C72"/>
<path d="M14.9999 10C14.9983 9.20484 14.6817 8.4427 14.1194 7.88043C13.5572 7.31817 12.795 7.00159 11.9999 7V7C11.3329 7.00219 10.6857 7.22655 10.1605 7.63764C9.63536 8.04873 9.26214 8.6231 9.09986 9.27C9.06266 9.39872 9.05171 9.53359 9.06765 9.66662C9.0836 9.79965 9.12611 9.92812 9.19267 10.0444C9.25923 10.1607 9.34848 10.2624 9.45511 10.3435C9.56175 10.4246 9.6836 10.4835 9.81342 10.5166C9.94325 10.5497 10.0784 10.5564 10.2109 10.5363C10.3433 10.5161 10.4704 10.4696 10.5845 10.3994C10.6986 10.3292 10.7975 10.2367 10.8752 10.1276C10.9529 10.0185 11.0079 9.89481 11.0369 9.764C11.0925 9.54926 11.2166 9.3585 11.3903 9.22064C11.5641 9.08277 11.7781 9.00531 11.9999 9C12.2646 9.00157 12.518 9.10744 12.7052 9.29463C12.8924 9.48183 12.9983 9.73527 12.9999 10C12.9999 10.013 13.0069 10.024 13.0069 10.037C13.0069 10.05 12.9999 10.06 12.9999 10.073C12.9999 10.1658 12.974 10.2567 12.9253 10.3357C12.8766 10.4146 12.8068 10.4784 12.7239 10.52L11.5519 11.104C11.3857 11.1873 11.246 11.3152 11.1485 11.4735C11.051 11.6318 10.9995 11.8141 10.9999 12V13C10.9999 13.2652 11.1052 13.5196 11.2928 13.7071C11.4803 13.8946 11.7346 14 11.9999 14C12.2651 14 12.5194 13.8946 12.707 13.7071C12.8945 13.5196 12.9999 13.2652 12.9999 13V12.617L13.6189 12.309C14.0427 12.0951 14.3973 11.7655 14.6416 11.3585C14.886 10.9515 15.0102 10.4836 14.9999 10.009V10.009V10Z" fill="#6B6C72"/>
<path d="M19.0822 4.94001C18.1574 4.007 17.0566 3.26674 15.8437 2.76208C14.6308 2.25742 13.3299 1.9984 12.0162 2.00001H12.0002C9.34803 1.99789 6.80364 3.04942 4.92678 4.92328C3.04992 6.79715 1.99431 9.33984 1.99219 11.992C1.99007 14.6442 3.0416 17.1886 4.91547 19.0654C6.78933 20.9423 9.33203 21.9979 11.9842 22H12.0002C13.9767 22 15.9088 21.4143 17.5526 20.3168C19.1964 19.2194 20.4781 17.6594 21.2359 15.834C21.9937 14.0086 22.1935 11.9995 21.8102 10.0606C21.4269 8.12164 20.4776 6.33977 19.0822 4.94001V4.94001ZM17.6482 17.665C16.9075 18.4078 16.0271 18.9966 15.0577 19.3973C14.0883 19.7981 13.0492 20.0029 12.0002 20H11.9872C9.86546 19.9983 7.83131 19.1538 6.33224 17.6523C4.83317 16.1508 3.99197 14.1152 3.99369 11.9935C3.99541 9.87178 4.83992 7.83763 6.34143 6.33856C7.84294 4.83949 9.87846 3.99828 12.0002 4.00001H12.0122C13.5943 4.00252 15.1402 4.4741 16.4544 5.35514C17.7685 6.23617 18.7919 7.48709 19.3952 8.94973C19.9984 10.4124 20.1544 12.021 19.8435 13.5723C19.5325 15.1236 18.7686 16.5479 17.6482 17.665Z" fill="#6B6C72"/>
</svg>
