<svg width="16" height="16" viewBox="0 0 16 16" fill="none" xmlns="http://www.w3.org/2000/svg">
<path d="M9.43204 7.98401L14.732 2.69901C14.8277 2.6069 14.904 2.49666 14.9566 2.37474C15.0091 2.25281 15.0369 2.12163 15.0383 1.98886C15.0396 1.85609 15.0145 1.72438 14.9644 1.60141C14.9143 1.47845 14.8402 1.3667 14.7464 1.27268C14.6527 1.17866 14.5411 1.10425 14.4183 1.05379C14.2955 1.00334 14.1638 0.977848 14.0311 0.97881C13.8983 0.979772 13.767 1.00717 13.645 1.0594C13.5229 1.11163 13.4124 1.18764 13.32 1.28301L8.02004 6.56801L2.73504 1.26801C2.64352 1.17015 2.53326 1.09167 2.41082 1.03725C2.28838 0.982828 2.15625 0.953567 2.02228 0.951205C1.88831 0.948843 1.75523 0.973429 1.63095 1.0235C1.50667 1.07358 1.39371 1.14811 1.2988 1.24269C1.20389 1.33727 1.12895 1.44996 1.07843 1.57407C1.02792 1.69817 1.00287 1.83116 1.00475 1.96514C1.00664 2.09912 1.03544 2.23135 1.08942 2.35398C1.14341 2.47662 1.2215 2.58715 1.31904 2.67901L6.60404 7.97901L1.30004 13.265C1.20441 13.3571 1.12808 13.4674 1.0755 13.5893C1.02293 13.7112 0.995163 13.8424 0.993825 13.9752C0.992487 14.1079 1.01761 14.2397 1.06771 14.3626C1.11782 14.4856 1.19191 14.5973 1.28567 14.6913C1.37942 14.7854 1.49097 14.8598 1.61379 14.9102C1.73661 14.9607 1.86824 14.9862 2.00102 14.9852C2.1338 14.9843 2.26505 14.9569 2.38713 14.9046C2.5092 14.8524 2.61966 14.7764 2.71204 14.681L8.01204 9.39601L13.3 14.7C13.3922 14.7956 13.5024 14.872 13.6243 14.9246C13.7462 14.9771 13.8774 15.0049 14.0102 15.0062C14.143 15.0076 14.2747 14.9824 14.3976 14.9323C14.5206 14.8822 14.6324 14.8081 14.7264 14.7144C14.8204 14.6206 14.8948 14.5091 14.9453 14.3863C14.9957 14.2634 15.0212 14.1318 15.0202 13.999C15.0193 13.8663 14.9919 13.735 14.9397 13.6129C14.8874 13.4908 14.8114 13.3804 14.716 13.288L9.43204 7.98401Z" fill="#4F4F4F"/>
</svg>
